<svg width="16" height="17" viewBox="0 0 16 17" fill="none" xmlns="http://www.w3.org/2000/svg">
        <path fill-rule="evenodd" clip-rule="evenodd" d="M3.83398 4.55556C3.83398 2.32319 5.61745 0.5 7.83398 0.5C10.0505 0.5 11.834 2.32319 11.834 4.55556V5H14.334C14.8862 5 15.334 5.44769 15.334 6V16C15.334 16.2653 15.2286 16.5196 15.0411 16.7072C14.8536 16.8946 14.5992 17 14.334 17H1.33398C1.06873 17 0.814462 16.8946 0.627008 16.7073C0.439523 16.5197 0.333984 16.2652 0.333984 16L0.333985 6C0.333985 5.44772 0.781698 5 1.33399 5H3.83398V4.55556ZM4.83398 5H10.834V4.55556C10.834 2.86057 9.48345 1.5 7.83398 1.5C6.18453 1.5 4.83398 2.86057 4.83398 4.55556V5ZM1.33399 6L1.33398 16H14.334V6H1.33399Z" fill="currentColor"></path>
</svg>